 PTC IGES file: prt0001.igs                                             S      1
1H,,1H;,7HPRT0001,11Hprt0001.igs,27HCreo Parametric by PTC Inc.,        G      1
7H2026092,32,38,7,38,15,7HPRT0001,1.,2,2HMM,32768,0.5,                  G      2
15H20260929.222808,0.302942,3029.54,5HADMIN,7HUnknown,10,0,             G      3
15H20260929.222808;                                                     G      4
     314       1       1       1       0       0       0       001000200D      1
     314       0       4       1       0                   COLOR       1D      2
     314       2       1       1       0       0       0       001000200D      3
     314       0       1       1       0                   COLOR       2D      4
     314       3       1       1       0       0       0       001000200D      5
     314       0       2       1       0                   COLOR       3D      6
     314       4       1       1       0       0       0       001000200D      7
     314       0       8       1       0                   COLOR       4D      8
     314       5       1       1       0       0       0       001000200D      9
     314       0       8       1       0                   COLOR       5D     10
     314       6       1       1       0       0       0       001000200D     11
     314       0       8       1       0                   COLOR       6D     12
     314       7       1       1       0       0       0       001000200D     13
     314       0       5       1       0                   COLOR       7D     14
     314       8       1       1       0       0       0       001000200D     15
     314       0       8       1       0                   COLOR       8D     16
     314       9       1       1       0       0       0       001000200D     17
     314       0       8       1       0                   COLOR       9D     18
     110      10       1       1       0       0       0       001010000D     19
     110       0       0       2       0                    LINE       1D     20
     110      12       1       1       0       0       0       001010000D     21
     110       0       0       2       0                    LINE       2D     22
     110      14       1       1       0       0       0       001010000D     23
     110       0       0       1       0                    LINE       3D     24
     110      15       1       1       0       0       0       001010000D     25
     110       0       0       2       0                    LINE       4D     26
     110      17       1       1       0       0       0       001010000D     27
     110       0       0       2       0                    LINE       5D     28
     110      19       1       1       0       0       0       001010000D     29
     110       0       0       2       0                    LINE       6D     30
     110      21       1       1       0       0       0       001010000D     31
     110       0       0       2       0                    LINE       7D     32
     110      23       1       1       0       0       0       001010000D     33
     110       0       0       2       0                    LINE       8D     34
     110      25       1       1       0       0       0       001010000D     35
     110       0       0       1       0                    LINE       9D     36
     110      26       1       1       0       0       0       001010000D     37
     110       0       0       1       0                    LINE      10D     38
     110      27       1       1       0       0       0       001010000D     39
     110       0       0       2       0                    LINE      11D     40
     110      29       1       1       0       0       0       001010000D     41
     110       0       0       2       0                    LINE      12D     42
     110      31       1       1       0       0       0       001010000D     43
     110       0       0       2       0                    LINE      13D     44
     110      33       1       1       0       0       0       001010000D     45
     110       0       0       2       0                    LINE      14D     46
     110      35       1       1       0       0       0       001010000D     47
     110       0       0       2       0                    LINE      15D     48
     110      37       1       1       0       0       0       001010000D     49
     110       0       0       1       0                    LINE      16D     50
     110      38       1       1       0       0       0       001010000D     51
     110       0       0       1       0                    LINE      17D     52
     110      39       1       1       0       0       0       001010000D     53
     110       0       0       2       0                    LINE      18D     54
     110      41       1       1       0       0       0       001010000D     55
     110       0       0       2       0                    LINE      19D     56
     110      43       1       1       0       0       0       001010000D     57
     110       0       0       2       0                    LINE      20D     58
     110      45       1       1       0       0       0       001010000D     59
     110       0       0       2       0                    LINE      21D     60
     110      47       1       1       0       0       0       001010000D     61
     110       0       0       1       0                    LINE      22D     62
     110      48       1       1       0       0       0       001010000D     63
     110       0       0       1       0                    LINE      23D     64
     110      49       1       1       0       0       0       001010000D     65
     110       0       0       2       0                    LINE      24D     66
     110      51       1       1       0       0       0       001010000D     67
     110       0       0       2       0                    LINE      25D     68
     110      53       1       1       0       0       0       001010000D     69
     110       0       0       2       0                    LINE      26D     70
     110      55       1       1       0       0       0       001010000D     71
     110       0       0       1       0                    LINE      27D     72
     110      56       1       1       0       0       0       001010000D     73
     110       0       0       1       0                    LINE      28D     74
     110      57       1       1       0       0       0       001010000D     75
     110       0       0       1       0                    LINE      29D     76
     110      58       1       1       0       0       0       001010000D     77
     110       0       0       1       0                    LINE      30D     78
     110      59       1       1       0       0       0       001010000D     79
     110       0       0       2       0                    LINE      31D     80
     110      61       1       1       0       0       0       001010000D     81
     110       0       0       2       0                    LINE      32D     82
     110      63       1       1       0       0       0       001010000D     83
     110       0       0       2       0                    LINE      33D     84
     110      65       1       1       0       0       0       001010000D     85
     110       0       0       2       0                    LINE      34D     86
     110      67       1       1       0       0       0       001010000D     87
     110       0       0       1       0                    LINE      35D     88
     110      68       1       1       0       0       0       001010000D     89
     110       0       0       1       0                    LINE      36D     90
     128      69       1       1       0       0       0       001010000D     91
     128       0       0       6       0                  SPLSRF       1D     92
     102      75       1       1       0       0       0       001010000D     93
     102       0       0       1       0                  CCURVE       1D     94
     110      76       1       1       0       0       0       001010500D     95
     110       0       0       1       0                    LINE      37D     96
     110      77       1       1       0       0       0       001010500D     97
     110       0       0       1       0                    LINE      38D     98
     110      78       1       1       0       0       0       001010500D     99
     110       0       0       1       0                    LINE      39D    100
     110      79       1       1       0       0       0       001010500D    101
     110       0       0       1       0                    LINE      40D    102
     110      80       1       1       0       0       0       001010500D    103
     110       0       0       1       0                    LINE      41D    104
     110      81       1       1       0       0       0       001010500D    105
     110       0       0       1       0                    LINE      42D    106
     110      82       1       1       0       0       0       001010500D    107
     110       0       0       1       0                    LINE      43D    108
     110      83       1       1       0       0       0       001010500D    109
     110       0       0       1       0                    LINE      44D    110
     110      84       1       1       0       0       0       001010500D    111
     110       0       0       1       0                    LINE      45D    112
     110      85       1       1       0       0       0       001010500D    113
     110       0       0       1       0                    LINE      46D    114
     110      86       1       1       0       0       0       001010500D    115
     110       0       0       1       0                    LINE      47D    116
     110      87       1       1       0       0       0       001010500D    117
     110       0       0       1       0                    LINE      48D    118
     102      88       1       1       0       0       0       001010500D    119
     102       0       0       1       0                  CCURVE       2D    120
     142      89       1       1       0       0       0       001010500D    121
     142       0       0       1       0                  UV_BND       1D    122
     144      90       1       1       0       0       0       000000000D    123
     144       0       0       1       0                 TRM_SRF       1D    124
     128      91       1       1       0       0       0       001010000D    125
     128       0       0       6       0                  SPLSRF       2D    126
     110      97       1       1       0       0       0       001010000D    127
     110       0       0       2       0                    LINE      49D    128
     110      99       1       1       0       0       0       001010000D    129
     110       0       0       2       0                    LINE      50D    130
     102     101       1       1       0       0       0       001010000D    131
     102       0       0       1       0                  CCURVE       3D    132
     110     102       1       1       0       0       0       001010500D    133
     110       0       0       1       0                    LINE      51D    134
     110     103       1       1       0       0       0       001010500D    135
     110       0       0       1       0                    LINE      52D    136
     110     104       1       1       0       0       0       001010500D    137
     110       0       0       1       0                    LINE      53D    138
     110     105       1       1       0       0       0       001010500D    139
     110       0       0       1       0                    LINE      54D    140
     102     106       1       1       0       0       0       001010500D    141
     102       0       0       1       0                  CCURVE       4D    142
     142     107       1       1       0       0       0       001010500D    143
     142       0       0       1       0                  UV_BND       2D    144
     144     108       1       1       0       0       0       000000000D    145
     144       0       0       1       0                 TRM_SRF       2D    146
     128     109       1       1       0       0       0       001010000D    147
     128       0       0       4       0                  SPLSRF       3D    148
     110     113       1       1       0       0       0       001010000D    149
     110       0       0       2       0                    LINE      55D    150
     110     115       1       1       0       0       0       001010000D    151
     110       0       0       2       0                    LINE      56D    152
     102     117       1       1       0       0       0       001010000D    153
     102       0       0       1       0                  CCURVE       5D    154
     110     118       1       1       0       0       0       001010500D    155
     110       0       0       1       0                    LINE      57D    156
     110     119       1       1       0       0       0       001010500D    157
     110       0       0       1       0                    LINE      58D    158
     110     120       1       1       0       0       0       001010500D    159
     110       0       0       1       0                    LINE      59D    160
     110     121       1       1       0       0       0       001010500D    161
     110       0       0       1       0                    LINE      60D    162
     102     122       1       1       0       0       0       001010500D    163
     102       0       0       1       0                  CCURVE       6D    164
     142     123       1       1       0       0       0       001010500D    165
     142       0       0       1       0                  UV_BND       3D    166
     144     124       1       1       0       0       0       000000000D    167
     144       0       0       1       0                 TRM_SRF       3D    168
     128     125       1       1       0       0       0       001010000D    169
     128       0       0       6       0                  SPLSRF       4D    170
     110     131       1       1       0       0       0       001010000D    171
     110       0       0       1       0                    LINE      61D    172
     110     132       1       1       0       0       0       001010000D    173
     110       0       0       2       0                    LINE      62D    174
     102     134       1       1       0       0       0       001010000D    175
     102       0       0       1       0                  CCURVE       7D    176
     110     135       1       1       0       0       0       001010500D    177
     110       0       0       1       0                    LINE      63D    178
     110     136       1       1       0       0       0       001010500D    179
     110       0       0       1       0                    LINE      64D    180
     110     137       1       1       0       0       0       001010500D    181
     110       0       0       1       0                    LINE      65D    182
     110     138       1       1       0       0       0       001010500D    183
     110       0       0       1       0                    LINE      66D    184
     102     139       1       1       0       0       0       001010500D    185
     102       0       0       1       0                  CCURVE       8D    186
     142     140       1       1       0       0       0       001010500D    187
     142       0       0       1       0                  UV_BND       4D    188
     144     141       1       1       0       0       0       000000000D    189
     144       0       0       1       0                 TRM_SRF       4D    190
     128     142       1       1       0       0       0       001010000D    191
     128       0       0       6       0                  SPLSRF       5D    192
     110     148       1       1       0       0       0       001010000D    193
     110       0       0       1       0                    LINE      67D    194
     110     149       1       1       0       0       0       001010000D    195
     110       0       0       1       0                    LINE      68D    196
     102     150       1       1       0       0       0       001010000D    197
     102       0       0       1       0                  CCURVE       9D    198
     110     151       1       1       0       0       0       001010500D    199
     110       0       0       1       0                    LINE      69D    200
     110     152       1       1       0       0       0       001010500D    201
     110       0       0       1       0                    LINE      70D    202
     110     153       1       1       0       0       0       001010500D    203
     110       0       0       1       0                    LINE      71D    204
     110     154       1       1       0       0       0       001010500D    205
     110       0       0       1       0                    LINE      72D    206
     102     155       1       1       0       0       0       001010500D    207
     102       0       0       1       0                  CCURVE      10D    208
     142     156       1       1       0       0       0       001010500D    209
     142       0       0       1       0                  UV_BND       5D    210
     144     157       1       1       0       0       0       000000000D    211
     144       0       0       1       0                 TRM_SRF       5D    212
     128     158       1       1       0       0       0       001010000D    213
     128       0       0       4       0                  SPLSRF       6D    214
     110     162       1       1       0       0       0       001010000D    215
     110       0       0       1       0                    LINE      73D    216
     110     163       1       1       0       0       0       001010000D    217
     110       0       0       1       0                    LINE      74D    218
     102     164       1       1       0       0       0       001010000D    219
     102       0       0       1       0                  CCURVE      11D    220
     110     165       1       1       0       0       0       001010500D    221
     110       0       0       1       0                    LINE      75D    222
     110     166       1       1       0       0       0       001010500D    223
     110       0       0       1       0                    LINE      76D    224
     110     167       1       1       0       0       0       001010500D    225
     110       0       0       1       0                    LINE      77D    226
     110     168       1       1       0       0       0       001010500D    227
     110       0       0       1       0                    LINE      78D    228
     102     169       1       1       0       0       0       001010500D    229
     102       0       0       1       0                  CCURVE      12D    230
     142     170       1       1       0       0       0       001010500D    231
     142       0       0       1       0                  UV_BND       6D    232
     144     171       1       1       0       0       0       000000000D    233
     144       0       0       1       0                 TRM_SRF       6D    234
     128     172       1       1       0       0       0       001010000D    235
     128       0       0       6       0                  SPLSRF       7D    236
     110     178       1       1       0       0       0       001010000D    237
     110       0       0       1       0                    LINE      79D    238
     110     179       1       1       0       0       0       001010000D    239
     110       0       0       2       0                    LINE      80D    240
     102     181       1       1       0       0       0       001010000D    241
     102       0       0       1       0                  CCURVE      13D    242
     110     182       1       1       0       0       0       001010500D    243
     110       0       0       1       0                    LINE      81D    244
     110     183       1       1       0       0       0       001010500D    245
     110       0       0       1       0                    LINE      82D    246
     110     184       1       1       0       0       0       001010500D    247
     110       0       0       1       0                    LINE      83D    248
     110     185       1       1       0       0       0       001010500D    249
     110       0       0       1       0                    LINE      84D    250
     102     186       1       1       0       0       0       001010500D    251
     102       0       0       1       0                  CCURVE      14D    252
     142     187       1       1       0       0       0       001010500D    253
     142       0       0       1       0                  UV_BND       7D    254
     144     188       1       1       0       0       0       000000000D    255
     144       0       0       1       0                 TRM_SRF       7D    256
     128     189       1       1       0       0       0       001010000D    257
     128       0       0       6       0                  SPLSRF       8D    258
     110     195       1       1       0       0       0       001010000D    259
     110       0       0       2       0                    LINE      85D    260
     110     197       1       1       0       0       0       001010000D    261
     110       0       0       2       0                    LINE      86D    262
     102     199       1       1       0       0       0       001010000D    263
     102       0       0       1       0                  CCURVE      15D    264
     110     200       1       1       0       0       0       001010500D    265
     110       0       0       1       0                    LINE      87D    266
     110     201       1       1       0       0       0       001010500D    267
     110       0       0       1       0                    LINE      88D    268
     110     202       1       1       0       0       0       001010500D    269
     110       0       0       1       0                    LINE      89D    270
     110     203       1       1       0       0       0       001010500D    271
     110       0       0       1       0                    LINE      90D    272
     102     204       1       1       0       0       0       001010500D    273
     102       0       0       1       0                  CCURVE      16D    274
     142     205       1       1       0       0       0       001010500D    275
     142       0       0       1       0                  UV_BND       8D    276
     144     206       1       1       0       0       0       000000000D    277
     144       0       0       1       0                 TRM_SRF       8D    278
     128     207       1       1       0       0       0       001010000D    279
     128       0       0       4       0                  SPLSRF       9D    280
     110     211       1       1       0       0       0       001010000D    281
     110       0       0       2       0                    LINE      91D    282
     110     213       1       1       0       0       0       001010000D    283
     110       0       0       2       0                    LINE      92D    284
     102     215       1       1       0       0       0       001010000D    285
     102       0       0       1       0                  CCURVE      17D    286
     110     216       1       1       0       0       0       001010500D    287
     110       0       0       1       0                    LINE      93D    288
     110     217       1       1       0       0       0       001010500D    289
     110       0       0       1       0                    LINE      94D    290
     110     218       1       1       0       0       0       001010500D    291
     110       0       0       1       0                    LINE      95D    292
     110     219       1       1       0       0       0       001010500D    293
     110       0       0       1       0                    LINE      96D    294
     102     220       1       1       0       0       0       001010500D    295
     102       0       0       1       0                  CCURVE      18D    296
     142     221       1       1       0       0       0       001010500D    297
     142       0       0       1       0                  UV_BND       9D    298
     144     222       1       1       0       0       0       000000000D    299
     144       0       0       1       0                 TRM_SRF       9D    300
     128     223       1       1       0       0       0       001010000D    301
     128       0       0       6       0                  SPLSRF      10D    302
     110     229       1       1       0       0       0       001010000D    303
     110       0       0       2       0                    LINE      97D    304
     110     231       1       1       0       0       0       001010000D    305
     110       0       0       2       0                    LINE      98D    306
     102     233       1       1       0       0       0       001010000D    307
     102       0       0       1       0                  CCURVE      19D    308
     110     234       1       1       0       0       0       001010500D    309
     110       0       0       1       0                    LINE      99D    310
     110     235       1       1       0       0       0       001010500D    311
     110       0       0       1       0                    LINE     100D    312
     110     236       1       1       0       0       0       001010500D    313
     110       0       0       1       0                    LINE     101D    314
     110     237       1       1       0       0       0       001010500D    315
     110       0       0       1       0                    LINE     102D    316
     102     238       1       1       0       0       0       001010500D    317
     102       0       0       1       0                  CCURVE      20D    318
     142     239       1       1       0       0       0       001010500D    319
     142       0       0       1       0                  UV_BND      10D    320
     144     240       1       1       0       0       0       000000000D    321
     144       0       0       1       0                 TRM_SRF      10D    322
     128     241       1       1       0       0       0       001010000D    323
     128       0       0       6       0                  SPLSRF      11D    324
     110     247       1       1       0       0       0       001010000D    325
     110       0       0       2       0                    LINE     103D    326
     110     249       1       1       0       0       0       001010000D    327
     110       0       0       1       0                    LINE     104D    328
     102     250       1       1       0       0       0       001010000D    329
     102       0       0       1       0                  CCURVE      21D    330
     110     251       1       1       0       0       0       001010500D    331
     110       0       0       1       0                    LINE     105D    332
     110     252       1       1       0       0       0       001010500D    333
     110       0       0       1       0                    LINE     106D    334
     110     253       1       1       0       0       0       001010500D    335
     110       0       0       1       0                    LINE     107D    336
     110     254       1       1       0       0       0       001010500D    337
     110       0       0       1       0                    LINE     108D    338
     102     255       1       1       0       0       0       001010500D    339
     102       0       0       1       0                  CCURVE      22D    340
     142     256       1       1       0       0       0       001010500D    341
     142       0       0       1       0                  UV_BND      11D    342
     144     257       1       1       0       0       0       000000000D    343
     144       0       0       1       0                 TRM_SRF      11D    344
     128     258       1       1       0       0       0       001010000D    345
     128       0       0       4       0                  SPLSRF      12D    346
     110     262       1       1       0       0       0       001010000D    347
     110       0       0       1       0                    LINE     109D    348
     110     263       1       1       0       0       0       001010000D    349
     110       0       0       1       0                    LINE     110D    350
     102     264       1       1       0       0       0       001010000D    351
     102       0       0       1       0                  CCURVE      23D    352
     110     265       1       1       0       0       0       001010500D    353
     110       0       0       1       0                    LINE     111D    354
     110     266       1       1       0       0       0       001010500D    355
     110       0       0       1       0                    LINE     112D    356
     110     267       1       1       0       0       0       001010500D    357
     110       0       0       1       0                    LINE     113D    358
     110     268       1       1       0       0       0       001010500D    359
     110       0       0       1       0                    LINE     114D    360
     102     269       1       1       0       0       0       001010500D    361
     102       0       0       1       0                  CCURVE      24D    362
     142     270       1       1       0       0       0       001010500D    363
     142       0       0       1       0                  UV_BND      12D    364
     144     271       1       1       0       0       0       000000000D    365
     144       0       0       1       0                 TRM_SRF      12D    366
     128     272       1       1       0       0       0       001010000D    367
     128       0       0       6       0                  SPLSRF      13D    368
     110     278       1       1       0       0       0       001010000D    369
     110       0       0       1       0                    LINE     115D    370
     110     279       1       1       0       0       0       001010000D    371
     110       0       0       2       0                    LINE     116D    372
     102     281       1       1       0       0       0       001010000D    373
     102       0       0       1       0                  CCURVE      25D    374
     110     282       1       1       0       0       0       001010500D    375
     110       0       0       1       0                    LINE     117D    376
     110     283       1       1       0       0       0       001010500D    377
     110       0       0       1       0                    LINE     118D    378
     110     284       1       1       0       0       0       001010500D    379
     110       0       0       1       0                    LINE     119D    380
     110     285       1       1       0       0       0       001010500D    381
     110       0       0       1       0                    LINE     120D    382
     102     286       1       1       0       0       0       001010500D    383
     102       0       0       1       0                  CCURVE      26D    384
     142     287       1       1       0       0       0       001010500D    385
     142       0       0       1       0                  UV_BND      13D    386
     144     288       1       1       0       0       0       000000000D    387
     144       0       0       1       0                 TRM_SRF      13D    388
     128     289       1       1       0       0       0       001010000D    389
     128       0       0       6       0                  SPLSRF      14D    390
     102     295       1       1       0       0       0       001010000D    391
     102       0       0       1       0                  CCURVE      27D    392
     110     296       1       1       0       0       0       001010500D    393
     110       0       0       1       0                    LINE     121D    394
     110     297       1       1       0       0       0       001010500D    395
     110       0       0       1       0                    LINE     122D    396
     110     298       1       1       0       0       0       001010500D    397
     110       0       0       1       0                    LINE     123D    398
     110     299       1       1       0       0       0       001010500D    399
     110       0       0       1       0                    LINE     124D    400
     110     300       1       1       0       0       0       001010500D    401
     110       0       0       1       0                    LINE     125D    402
     110     301       1       1       0       0       0       001010500D    403
     110       0       0       1       0                    LINE     126D    404
     110     302       1       1       0       0       0       001010500D    405
     110       0       0       1       0                    LINE     127D    406
     110     303       1       1       0       0       0       001010500D    407
     110       0       0       1       0                    LINE     128D    408
     110     304       1       1       0       0       0       001010500D    409
     110       0       0       1       0                    LINE     129D    410
     110     305       1       1       0       0       0       001010500D    411
     110       0       0       1       0                    LINE     130D    412
     110     306       1       1       0       0       0       001010500D    413
     110       0       0       1       0                    LINE     131D    414
     110     307       1       1       0       0       0       001010500D    415
     110       0       0       1       0                    LINE     132D    416
     102     308       1       1       0       0       0       001010500D    417
     102       0       0       1       0                  CCURVE      28D    418
     142     309       1       1       0       0       0       001010500D    419
     142       0       0       1       0                  UV_BND      14D    420
     144     310       1       1       0       0       0       000000000D    421
     144       0       0       1       0                 TRM_SRF      14D    422
314,1.1D0,1.2D0,1D2;                                                   1P      1
314,4.1D1,2.61589D1,1.12848D1;                                         3P      2
314,5.04854D1,1.5455D0,1.5455D0;                                       5P      3
314,6.35294D1,6.86275D1,7.4902D1;                                      7P      4
314,6.40777D1,6.40777D1,6.40777D1;                                     9P      5
314,6.69062D1,6.69903D1,6.55217D1;                                    11P      6
314,9.21569D1,7.05882D1,4.70588D1;                                    13P      7
314,1D2,1D2,5.3D1;                                                    15P      8
314,1D2,1D2,9.49D1;                                                   17P      9
110,-1.25D2,9.951474726931D1,-1.5D3,-1.25D2,7.951474726931D1,         19P     10
-1.5D3;                                                               19P     11
110,-1.25D2,7.951474726931D1,-1.5D3,-1D1,7.951474726931D1,            21P     12
-1.5D3;                                                               21P     13
110,-1D1,7.951474726931D1,-1.5D3,-1D1,-2.204852527307D2,-1.5D3;       23P     14
110,-1D1,-2.204852527307D2,-1.5D3,-1.25D2,-2.204852527307D2,          25P     15
-1.5D3;                                                               25P     16
110,-1.25D2,-2.204852527307D2,-1.5D3,-1.25D2,-2.404852527307D2,       27P     17
-1.5D3;                                                               27P     18
110,-1.25D2,-2.404852527307D2,-1.5D3,1.25D2,-2.404852527307D2,        29P     19
-1.5D3;                                                               29P     20
110,1.25D2,-2.404852527307D2,-1.5D3,1.25D2,-2.204852527307D2,         31P     21
-1.5D3;                                                               31P     22
110,1.25D2,-2.204852527307D2,-1.5D3,1D1,-2.204852527307D2,            33P     23
-1.5D3;                                                               33P     24
110,1D1,-2.204852527307D2,-1.5D3,1D1,7.951474726931D1,-1.5D3;         35P     25
110,1D1,7.951474726931D1,-1.5D3,1.25D2,7.951474726931D1,-1.5D3;       37P     26
110,1.25D2,7.951474726931D1,-1.5D3,1.25D2,9.951474726931D1,           39P     27
-1.5D3;                                                               39P     28
110,1.25D2,9.951474726931D1,-1.5D3,-1.25D2,9.951474726931D1,          41P     29
-1.5D3;                                                               41P     30
110,-1.25D2,9.951474726931D1,-1.5D3,-1.25D2,9.951474726931D1,         43P     31
1.5D3;                                                                43P     32
110,1.25D2,9.951474726931D1,-1.5D3,1.25D2,9.951474726931D1,           45P     33
1.5D3;                                                                45P     34
110,1.25D2,7.951474726931D1,-1.5D3,1.25D2,7.951474726931D1,           47P     35
1.5D3;                                                                47P     36
110,1D1,7.951474726931D1,-1.5D3,1D1,7.951474726931D1,1.5D3;           49P     37
110,1D1,-2.204852527307D2,-1.5D3,1D1,-2.204852527307D2,1.5D3;         51P     38
110,1.25D2,-2.204852527307D2,-1.5D3,1.25D2,-2.204852527307D2,         53P     39
1.5D3;                                                                53P     40
110,1.25D2,-2.404852527307D2,-1.5D3,1.25D2,-2.404852527307D2,         55P     41
1.5D3;                                                                55P     42
110,-1.25D2,-2.404852527307D2,-1.5D3,-1.25D2,-2.404852527307D2,       57P     43
1.5D3;                                                                57P     44
110,-1.25D2,-2.204852527307D2,-1.5D3,-1.25D2,-2.204852527307D2,       59P     45
1.5D3;                                                                59P     46
110,-1D1,-2.204852527307D2,-1.5D3,-1D1,-2.204852527307D2,1.5D3;       61P     47
110,-1D1,7.951474726931D1,-1.5D3,-1D1,7.951474726931D1,1.5D3;         63P     48
110,-1.25D2,7.951474726931D1,-1.5D3,-1.25D2,7.951474726931D1,         65P     49
1.5D3;                                                                65P     50
110,-1.25D2,9.951474726931D1,1.5D3,-1.25D2,7.951474726931D1,          67P     51
1.5D3;                                                                67P     52
110,1.25D2,9.951474726931D1,1.5D3,-1.25D2,9.951474726931D1,           69P     53
1.5D3;                                                                69P     54
110,1.25D2,7.951474726931D1,1.5D3,1.25D2,9.951474726931D1,1.5D3;      71P     55
110,1D1,7.951474726931D1,1.5D3,1.25D2,7.951474726931D1,1.5D3;         73P     56
110,1D1,-2.204852527307D2,1.5D3,1D1,7.951474726931D1,1.5D3;           75P     57
110,1.25D2,-2.204852527307D2,1.5D3,1D1,-2.204852527307D2,1.5D3;       77P     58
110,1.25D2,-2.404852527307D2,1.5D3,1.25D2,-2.204852527307D2,          79P     59
1.5D3;                                                                79P     60
110,-1.25D2,-2.404852527307D2,1.5D3,1.25D2,-2.404852527307D2,         81P     61
1.5D3;                                                                81P     62
110,-1.25D2,-2.204852527307D2,1.5D3,-1.25D2,-2.404852527307D2,        83P     63
1.5D3;                                                                83P     64
110,-1D1,-2.204852527307D2,1.5D3,-1.25D2,-2.204852527307D2,           85P     65
1.5D3;                                                                85P     66
110,-1D1,7.951474726931D1,1.5D3,-1D1,-2.204852527307D2,1.5D3;         87P     67
110,-1.25D2,7.951474726931D1,1.5D3,-1D1,7.951474726931D1,1.5D3;       89P     68
128,1,1,1,1,0,0,1,0,0,-1.3D2,-1.3D2,1.3D2,1.3D2,                      91P     69
-2.472852527307D2,-2.472852527307D2,1.063147472693D2,                 91P     70
1.063147472693D2,1D0,1D0,1D0,1D0,-1.3D2,-2.472852527307D2,            91P     71
-1.5D3,1.3D2,-2.472852527307D2,-1.5D3,-1.3D2,1.063147472693D2,        91P     72
-1.5D3,1.3D2,1.063147472693D2,-1.5D3,-1.3D2,1.3D2,                    91P     73
-2.472852527307D2,1.063147472693D2;                                   91P     74
102,12,19,21,23,25,27,29,31,33,35,37,39,41;                           93P     75
110,-1.25D2,9.951474726931D1,0D0,-1.25D2,7.951474726931D1,0D0;        95P     76
110,-1.25D2,7.951474726931D1,0D0,-1D1,7.951474726931D1,0D0;           97P     77
110,-1D1,7.951474726931D1,0D0,-1D1,-2.204852527307D2,0D0;             99P     78
110,-1D1,-2.204852527307D2,0D0,-1.25D2,-2.204852527307D2,0D0;        101P     79
110,-1.25D2,-2.204852527307D2,0D0,-1.25D2,-2.404852527307D2,0D0;     103P     80
110,-1.25D2,-2.404852527307D2,0D0,1.25D2,-2.404852527307D2,0D0;      105P     81
110,1.25D2,-2.404852527307D2,0D0,1.25D2,-2.204852527307D2,0D0;       107P     82
110,1.25D2,-2.204852527307D2,0D0,1D1,-2.204852527307D2,0D0;          109P     83
110,1D1,-2.204852527307D2,0D0,1D1,7.951474726931D1,0D0;              111P     84
110,1D1,7.951474726931D1,0D0,1.25D2,7.951474726931D1,0D0;            113P     85
110,1.25D2,7.951474726931D1,0D0,1.25D2,9.951474726931D1,0D0;         115P     86
110,1.25D2,9.951474726931D1,0D0,-1.25D2,9.951474726931D1,0D0;        117P     87
102,12,95,97,99,101,103,105,107,109,111,113,115,117;                 119P     88
142,0,91,119,93,1;                                                   121P     89
144,91,1,0,121;                                                      123P     90
128,1,1,1,1,0,0,1,0,0,-3.635445502273D0,-3.635445502273D0,           125P     91
2.363544550227D1,2.363544550227D1,-6D1,-6D1,3.06D3,3.06D3,1D0,       125P     92
1D0,1D0,1D0,-1.25D2,1.031501927716D2,-1.56D3,-1.25D2,                125P     93
7.587930176704D1,-1.56D3,-1.25D2,1.031501927716D2,1.56D3,            125P     94
-1.25D2,7.587930176704D1,1.56D3,-3.635445502273D0,                   125P     95
2.363544550227D1,-6D1,3.06D3;                                        125P     96
110,-1.25D2,7.951474726931D1,1.5D3,-1.25D2,9.951474726931D1,         127P     97
1.5D3;                                                               127P     98
110,-1.25D2,9.951474726931D1,1.5D3,-1.25D2,9.951474726931D1,         129P     99
-1.5D3;                                                              129P    100
102,4,19,65,127,129;                                                 131P    101
110,0D0,0D0,0D0,2D1,0D0,0D0;                                         133P    102
110,2D1,0D0,0D0,2D1,3D3,0D0;                                         135P    103
110,2D1,3D3,0D0,0D0,3D3,0D0;                                         137P    104
110,0D0,3D3,0D0,0D0,0D0,0D0;                                         139P    105
102,4,133,135,137,139;                                               141P    106
142,0,125,141,131,1;                                                 143P    107
144,125,1,0,143;                                                     145P    108
128,1,1,1,1,0,0,1,0,0,-5D0,-5D0,2.55D2,2.55D2,-6D1,-6D1,3.06D3,      147P    109
3.06D3,1D0,1D0,1D0,1D0,1.3D2,9.951474726931D1,-1.56D3,-1.3D2,        147P    110
9.951474726931D1,-1.56D3,1.3D2,9.951474726931D1,1.56D3,-1.3D2,       147P    111
9.951474726931D1,1.56D3,-5D0,2.55D2,-6D1,3.06D3;                     147P    112
110,-1.25D2,9.951474726931D1,1.5D3,1.25D2,9.951474726931D1,          149P    113
1.5D3;                                                               149P    114
110,1.25D2,9.951474726931D1,1.5D3,1.25D2,9.951474726931D1,           151P    115
-1.5D3;                                                              151P    116
102,4,41,43,149,151;                                                 153P    117
110,0D0,0D0,0D0,2.5D2,0D0,0D0;                                       155P    118
110,2.5D2,0D0,0D0,2.5D2,3D3,0D0;                                     157P    119
110,2.5D2,3D3,0D0,0D0,3D3,0D0;                                       159P    120
110,0D0,3D3,0D0,0D0,0D0,0D0;                                         161P    121
102,4,155,157,159,161;                                               163P    122
142,0,147,163,153,1;                                                 165P    123
144,147,1,0,165;                                                     167P    124
128,1,1,1,1,0,0,1,0,0,-3.635445502273D0,-3.635445502273D0,           169P    125
2.363544550227D1,2.363544550227D1,-6D1,-6D1,3.06D3,3.06D3,1D0,       169P    126
1D0,1D0,1D0,1.25D2,7.587930176704D1,-1.56D3,1.25D2,                  169P    127
1.031501927716D2,-1.56D3,1.25D2,7.587930176704D1,1.56D3,1.25D2,      169P    128
1.031501927716D2,1.56D3,-3.635445502273D0,2.363544550227D1,-6D1,     169P    129
3.06D3;                                                              169P    130
110,1.25D2,9.951474726931D1,1.5D3,1.25D2,7.951474726931D1,1.5D3;     171P    131
110,1.25D2,7.951474726931D1,1.5D3,1.25D2,7.951474726931D1,           173P    132
-1.5D3;                                                              173P    133
102,4,39,45,171,173;                                                 175P    134
110,0D0,0D0,0D0,2D1,0D0,0D0;                                         177P    135
110,2D1,0D0,0D0,2D1,3D3,0D0;                                         179P    136
110,2D1,3D3,0D0,0D0,3D3,0D0;                                         181P    137
110,0D0,3D3,0D0,0D0,0D0,0D0;                                         183P    138
102,4,177,179,181,183;                                               185P    139
142,0,169,185,175,1;                                                 187P    140
144,169,1,0,187;                                                     189P    141
128,1,1,1,1,0,0,1,0,0,-3.635445502273D0,-3.635445502273D0,           191P    142
1.186354455023D2,1.186354455023D2,-6D1,-6D1,3.06D3,3.06D3,1D0,       191P    143
1D0,1D0,1D0,6.364554497727D0,7.951474726931D1,-1.56D3,               191P    144
1.286354455023D2,7.951474726931D1,-1.56D3,6.364554497727D0,          191P    145
7.951474726931D1,1.56D3,1.286354455023D2,7.951474726931D1,           191P    146
1.56D3,-3.635445502273D0,1.186354455023D2,-6D1,3.06D3;               191P    147
110,1.25D2,7.951474726931D1,1.5D3,1D1,7.951474726931D1,1.5D3;        193P    148
110,1D1,7.951474726931D1,1.5D3,1D1,7.951474726931D1,-1.5D3;          195P    149
102,4,37,47,193,195;                                                 197P    150
110,0D0,0D0,0D0,1.15D2,0D0,0D0;                                      199P    151
110,1.15D2,0D0,0D0,1.15D2,3D3,0D0;                                   201P    152
110,1.15D2,3D3,0D0,0D0,3D3,0D0;                                      203P    153
110,0D0,3D3,0D0,0D0,0D0,0D0;                                         205P    154
102,4,199,201,203,205;                                               207P    155
142,0,191,207,197,1;                                                 209P    156
144,191,1,0,209;                                                     211P    157
128,1,1,1,1,0,0,1,0,0,-6D0,-6D0,3.06D2,3.06D2,-6D1,-6D1,3.06D3,      213P    158
3.06D3,1D0,1D0,1D0,1D0,1D1,-2.264852527307D2,-1.56D3,1D1,            213P    159
8.551474726931D1,-1.56D3,1D1,-2.264852527307D2,1.56D3,1D1,           213P    160
8.551474726931D1,1.56D3,-6D0,3.06D2,-6D1,3.06D3;                     213P    161
110,1D1,7.951474726931D1,1.5D3,1D1,-2.204852527307D2,1.5D3;          215P    162
110,1D1,-2.204852527307D2,1.5D3,1D1,-2.204852527307D2,-1.5D3;        217P    163
102,4,35,49,215,217;                                                 219P    164
110,0D0,0D0,0D0,3D2,0D0,0D0;                                         221P    165
110,3D2,0D0,0D0,3D2,3D3,0D0;                                         223P    166
110,3D2,3D3,0D0,0D0,3D3,0D0;                                         225P    167
110,0D0,3D3,0D0,0D0,0D0,0D0;                                         227P    168
102,4,221,223,225,227;                                               229P    169
142,0,213,229,219,1;                                                 231P    170
144,213,1,0,231;                                                     233P    171
128,1,1,1,1,0,0,1,0,0,-3.635445502273D0,-3.635445502273D0,           235P    172
1.186354455023D2,1.186354455023D2,-6D1,-6D1,3.06D3,3.06D3,1D0,       235P    173
1D0,1D0,1D0,1.286354455023D2,-2.204852527307D2,-1.56D3,              235P    174
6.364554497727D0,-2.204852527307D2,-1.56D3,1.286354455023D2,         235P    175
-2.204852527307D2,1.56D3,6.364554497727D0,-2.204852527307D2,         235P    176
1.56D3,-3.635445502273D0,1.186354455023D2,-6D1,3.06D3;               235P    177
110,1D1,-2.204852527307D2,1.5D3,1.25D2,-2.204852527307D2,1.5D3;      237P    178
110,1.25D2,-2.204852527307D2,1.5D3,1.25D2,-2.204852527307D2,         239P    179
-1.5D3;                                                              239P    180
102,4,33,51,237,239;                                                 241P    181
110,0D0,0D0,0D0,1.15D2,0D0,0D0;                                      243P    182
110,1.15D2,0D0,0D0,1.15D2,3D3,0D0;                                   245P    183
110,1.15D2,3D3,0D0,0D0,3D3,0D0;                                      247P    184
110,0D0,3D3,0D0,0D0,0D0,0D0;                                         249P    185
102,4,243,245,247,249;                                               251P    186
142,0,235,251,241,1;                                                 253P    187
144,235,1,0,253;                                                     255P    188
128,1,1,1,1,0,0,1,0,0,-3.635445502273D0,-3.635445502273D0,           257P    189
2.363544550227D1,2.363544550227D1,-6D1,-6D1,3.06D3,3.06D3,1D0,       257P    190
1D0,1D0,1D0,1.25D2,-2.441206982330D2,-1.56D3,1.25D2,                 257P    191
-2.168498072284D2,-1.56D3,1.25D2,-2.441206982330D2,1.56D3,           257P    192
1.25D2,-2.168498072284D2,1.56D3,-3.635445502273D0,                   257P    193
2.363544550227D1,-6D1,3.06D3;                                        257P    194
110,1.25D2,-2.204852527307D2,1.5D3,1.25D2,-2.404852527307D2,         259P    195
1.5D3;                                                               259P    196
110,1.25D2,-2.404852527307D2,1.5D3,1.25D2,-2.404852527307D2,         261P    197
-1.5D3;                                                              261P    198
102,4,31,53,259,261;                                                 263P    199
110,0D0,0D0,0D0,2D1,0D0,0D0;                                         265P    200
110,2D1,0D0,0D0,2D1,3D3,0D0;                                         267P    201
110,2D1,3D3,0D0,0D0,3D3,0D0;                                         269P    202
110,0D0,3D3,0D0,0D0,0D0,0D0;                                         271P    203
102,4,265,267,269,271;                                               273P    204
142,0,257,273,263,1;                                                 275P    205
144,257,1,0,275;                                                     277P    206
128,1,1,1,1,0,0,1,0,0,-5D0,-5D0,2.55D2,2.55D2,-6D1,-6D1,3.06D3,      279P    207
3.06D3,1D0,1D0,1D0,1D0,-1.3D2,-2.404852527307D2,-1.56D3,1.3D2,       279P    208
-2.404852527307D2,-1.56D3,-1.3D2,-2.404852527307D2,1.56D3,1.3D2,     279P    209
-2.404852527307D2,1.56D3,-5D0,2.55D2,-6D1,3.06D3;                    279P    210
110,1.25D2,-2.404852527307D2,1.5D3,-1.25D2,-2.404852527307D2,        281P    211
1.5D3;                                                               281P    212
110,-1.25D2,-2.404852527307D2,1.5D3,-1.25D2,-2.404852527307D2,       283P    213
-1.5D3;                                                              283P    214
102,4,29,55,281,283;                                                 285P    215
110,1.421085471520D-14,0D0,0D0,2.5D2,0D0,0D0;                        287P    216
110,2.5D2,0D0,0D0,2.5D2,3D3,0D0;                                     289P    217
110,2.5D2,3D3,0D0,1.421085471520D-14,3D3,0D0;                        291P    218
110,1.421085471520D-14,3D3,0D0,1.421085471520D-14,0D0,0D0;           293P    219
102,4,287,289,291,293;                                               295P    220
142,0,279,295,285,1;                                                 297P    221
144,279,1,0,297;                                                     299P    222
128,1,1,1,1,0,0,1,0,0,-3.635445502273D0,-3.635445502273D0,           301P    223
2.363544550227D1,2.363544550227D1,-6D1,-6D1,3.06D3,3.06D3,1D0,       301P    224
1D0,1D0,1D0,-1.25D2,-2.168498072284D2,-1.56D3,-1.25D2,               301P    225
-2.441206982330D2,-1.56D3,-1.25D2,-2.168498072284D2,1.56D3,          301P    226
-1.25D2,-2.441206982330D2,1.56D3,-3.635445502273D0,                  301P    227
2.363544550227D1,-6D1,3.06D3;                                        301P    228
110,-1.25D2,-2.404852527307D2,1.5D3,-1.25D2,-2.204852527307D2,       303P    229
1.5D3;                                                               303P    230
110,-1.25D2,-2.204852527307D2,1.5D3,-1.25D2,-2.204852527307D2,       305P    231
-1.5D3;                                                              305P    232
102,4,27,57,303,305;                                                 307P    233
110,0D0,0D0,0D0,2D1,0D0,0D0;                                         309P    234
110,2D1,0D0,0D0,2D1,3D3,0D0;                                         311P    235
110,2D1,3D3,0D0,0D0,3D3,0D0;                                         313P    236
110,0D0,3D3,0D0,0D0,0D0,0D0;                                         315P    237
102,4,309,311,313,315;                                               317P    238
142,0,301,317,307,1;                                                 319P    239
144,301,1,0,319;                                                     321P    240
128,1,1,1,1,0,0,1,0,0,-3.635445502273D0,-3.635445502273D0,           323P    241
1.186354455023D2,1.186354455023D2,-6D1,-6D1,3.06D3,3.06D3,1D0,       323P    242
1D0,1D0,1D0,-6.364554497727D0,-2.204852527307D2,-1.56D3,             323P    243
-1.286354455023D2,-2.204852527307D2,-1.56D3,-6.364554497727D0,       323P    244
-2.204852527307D2,1.56D3,-1.286354455023D2,-2.204852527307D2,        323P    245
1.56D3,-3.635445502273D0,1.186354455023D2,-6D1,3.06D3;               323P    246
110,-1.25D2,-2.204852527307D2,1.5D3,-1D1,-2.204852527307D2,          325P    247
1.5D3;                                                               325P    248
110,-1D1,-2.204852527307D2,1.5D3,-1D1,-2.204852527307D2,-1.5D3;      327P    249
102,4,25,59,325,327;                                                 329P    250
110,0D0,0D0,0D0,1.15D2,0D0,0D0;                                      331P    251
110,1.15D2,0D0,0D0,1.15D2,3D3,0D0;                                   333P    252
110,1.15D2,3D3,0D0,0D0,3D3,0D0;                                      335P    253
110,0D0,3D3,0D0,0D0,0D0,0D0;                                         337P    254
102,4,331,333,335,337;                                               339P    255
142,0,323,339,329,1;                                                 341P    256
144,323,1,0,341;                                                     343P    257
128,1,1,1,1,0,0,1,0,0,-6D0,-6D0,3.06D2,3.06D2,-6D1,-6D1,3.06D3,      345P    258
3.06D3,1D0,1D0,1D0,1D0,-1D1,8.551474726931D1,-1.56D3,-1D1,           345P    259
-2.264852527307D2,-1.56D3,-1D1,8.551474726931D1,1.56D3,-1D1,         345P    260
-2.264852527307D2,1.56D3,-6D0,3.06D2,-6D1,3.06D3;                    345P    261
110,-1D1,-2.204852527307D2,1.5D3,-1D1,7.951474726931D1,1.5D3;        347P    262
110,-1D1,7.951474726931D1,1.5D3,-1D1,7.951474726931D1,-1.5D3;        349P    263
102,4,23,61,347,349;                                                 351P    264
110,0D0,0D0,0D0,3D2,0D0,0D0;                                         353P    265
110,3D2,0D0,0D0,3D2,3D3,0D0;                                         355P    266
110,3D2,3D3,0D0,0D0,3D3,0D0;                                         357P    267
110,0D0,3D3,0D0,0D0,0D0,0D0;                                         359P    268
102,4,353,355,357,359;                                               361P    269
142,0,345,361,351,1;                                                 363P    270
144,345,1,0,363;                                                     365P    271
128,1,1,1,1,0,0,1,0,0,-3.635445502273D0,-3.635445502273D0,           367P    272
1.186354455023D2,1.186354455023D2,-6D1,-6D1,3.06D3,3.06D3,1D0,       367P    273
1D0,1D0,1D0,-1.286354455023D2,7.951474726931D1,-1.56D3,              367P    274
-6.364554497727D0,7.951474726931D1,-1.56D3,-1.286354455023D2,        367P    275
7.951474726931D1,1.56D3,-6.364554497727D0,7.951474726931D1,          367P    276
1.56D3,-3.635445502273D0,1.186354455023D2,-6D1,3.06D3;               367P    277
110,-1D1,7.951474726931D1,1.5D3,-1.25D2,7.951474726931D1,1.5D3;      369P    278
110,-1.25D2,7.951474726931D1,1.5D3,-1.25D2,7.951474726931D1,         371P    279
-1.5D3;                                                              371P    280
102,4,21,63,369,371;                                                 373P    281
110,0D0,0D0,0D0,1.15D2,0D0,0D0;                                      375P    282
110,1.15D2,0D0,0D0,1.15D2,3D3,0D0;                                   377P    283
110,1.15D2,3D3,0D0,0D0,3D3,0D0;                                      379P    284
110,0D0,3D3,0D0,0D0,0D0,0D0;                                         381P    285
102,4,375,377,379,381;                                               383P    286
142,0,367,383,373,1;                                                 385P    287
144,367,1,0,385;                                                     387P    288
128,1,1,1,1,0,0,1,0,0,-1.3D2,-1.3D2,1.3D2,1.3D2,                     389P    289
-2.472852527307D2,-2.472852527307D2,1.063147472693D2,                389P    290
1.063147472693D2,1D0,1D0,1D0,1D0,-1.3D2,-2.472852527307D2,1.5D3,     389P    291
1.3D2,-2.472852527307D2,1.5D3,-1.3D2,1.063147472693D2,1.5D3,         389P    292
1.3D2,1.063147472693D2,1.5D3,-1.3D2,1.3D2,-2.472852527307D2,         389P    293
1.063147472693D2;                                                    389P    294
102,12,67,89,87,85,83,81,79,77,75,73,71,69;                          391P    295
110,-1.25D2,9.951474726931D1,0D0,-1.25D2,7.951474726931D1,0D0;       393P    296
110,-1.25D2,7.951474726931D1,0D0,-1D1,7.951474726931D1,0D0;          395P    297
110,-1D1,7.951474726931D1,0D0,-1D1,-2.204852527307D2,0D0;            397P    298
110,-1D1,-2.204852527307D2,0D0,-1.25D2,-2.204852527307D2,0D0;        399P    299
110,-1.25D2,-2.204852527307D2,0D0,-1.25D2,-2.404852527307D2,0D0;     401P    300
110,-1.25D2,-2.404852527307D2,0D0,1.25D2,-2.404852527307D2,0D0;      403P    301
110,1.25D2,-2.404852527307D2,0D0,1.25D2,-2.204852527307D2,0D0;       405P    302
110,1.25D2,-2.204852527307D2,0D0,1D1,-2.204852527307D2,0D0;          407P    303
110,1D1,-2.204852527307D2,0D0,1D1,7.951474726931D1,0D0;              409P    304
110,1D1,7.951474726931D1,0D0,1.25D2,7.951474726931D1,0D0;            411P    305
110,1.25D2,7.951474726931D1,0D0,1.25D2,9.951474726931D1,0D0;         413P    306
110,1.25D2,9.951474726931D1,0D0,-1.25D2,9.951474726931D1,0D0;        415P    307
102,12,393,395,397,399,401,403,405,407,409,411,413,415;              417P    308
142,0,389,417,391,1;                                                 419P    309
144,389,1,0,419;                                                     421P    310
S      1G      4D    422P    310                                        T      1
